<?xml version="1.0" standalone="no"?>
<!DOCTYPE svg PUBLIC "-//W3C//DTD SVG 20010904//EN"
 "http://www.w3.org/TR/2001/REC-SVG-20010904/DTD/svg10.dtd">
<svg version="1.0" xmlns="http://www.w3.org/2000/svg"
 width="506.000000pt" height="506.000000pt" viewBox="0 0 506.000000 506.000000"
 preserveAspectRatio="xMidYMid meet">
<metadata>
Created by potrace 1.11, written by Peter Selinger 2001-2013
</metadata>
<g transform="translate(0.000000,506.000000) scale(0.100000,-0.100000)"
fill="#000000" stroke="none">
<path d="M1530 5023 c-483 -48 -813 -186 -1047 -437 -220 -236 -338 -535 -422
-1071 -89 -571 -82 -1505 15 -2056 70 -401 148 -627 289 -839 57 -85 194 -228
275 -287 143 -104 321 -185 514 -233 211 -53 304 -63 664 -68 380 -5 392 -3
467 73 64 63 75 109 75 299 0 89 -5 178 -10 198 -17 59 -69 120 -129 151 l-55
27 -280 0 c-155 0 -321 5 -371 10 -198 23 -403 101 -517 197 -104 88 -165 182
-210 323 l-23 75 0 1145 0 1145 23 75 c45 141 106 235 210 323 114 96 319 174
517 197 50 5 217 10 371 10 l282 0 53 28 c60 31 113 93 129 150 16 60 13 350
-5 403 -22 63 -66 113 -127 143 l-52 26 -300 -2 c-166 0 -317 -3 -336 -5z"/>
<path d="M2845 5011 c-46 -21 -111 -88 -131 -137 -10 -25 -14 -82 -14 -221 0
-217 7 -240 83 -310 81 -75 61 -73 839 -73 l689 0 -4 -1312 c-3 -1184 -5
-1320 -20 -1381 -68 -277 -230 -473 -502 -611 -201 -101 -457 -163 -725 -175
-185 -8 -228 -21 -289 -82 -64 -65 -71 -92 -71 -299 0 -173 2 -188 24 -235 28
-60 77 -106 140 -130 41 -16 68 -17 215 -12 318 12 603 50 840 112 620 164
941 490 1075 1095 62 282 59 191 63 2073 l4 1717 -1088 0 c-1031 0 -1090 -1
-1128 -19z"/>
<path d="M2444 2777 c-222 -87 -234 -382 -19 -483 173 -82 378 61 363 253 -2
32 -12 74 -22 94 -22 47 -78 103 -125 125 -44 22 -155 28 -197 11z"/>
<path d="M1542 2754 c-206 -103 -181 -413 39 -478 65 -20 92 -20 155 -1 175
52 240 269 124 415 -70 89 -211 117 -318 64z"/>
<path d="M3282 2754 c-206 -102 -178 -413 42 -479 62 -19 90 -19 152 0 171 51
240 264 131 407 -73 95 -215 127 -325 72z"/>
</g>
</svg>
